<svg xmlns="http://www.w3.org/2000/svg" viewBox="0 0 180 220" shape-rendering="crispEdges">
  <defs>
    <linearGradient id="skin" x1="0" x2="0" y1="0" y2="1">
      <stop offset="0" stop-color="#efc09b"/>
      <stop offset=".58" stop-color="#d89171"/>
      <stop offset="1" stop-color="#a95f46"/>
    </linearGradient>
    <linearGradient id="tattoo" x1="0" x2="1" y1="0" y2="1">
      <stop offset="0" stop-color="#121826"/>
      <stop offset=".46" stop-color="#394152"/>
      <stop offset=".48" stop-color="#af3028"/>
      <stop offset="1" stop-color="#6d1f1b"/>
    </linearGradient>
    <filter id="shadow" x="-20%" y="-20%" width="140%" height="140%">
      <feDropShadow dx="0" dy="5" stdDeviation="3" flood-color="#000" flood-opacity=".36"/>
    </filter>
  </defs>
  <ellipse cx="92" cy="207" rx="60" ry="10" fill="#000" opacity=".24"/>
  <g filter="url(#shadow)">
    <path d="M50 84c-17 15-25 37-22 65l24-4c-1-18 4-33 16-45z" fill="url(#skin)"/>
    <path d="M128 84c20 16 28 39 24 65l-24-5c2-18-4-33-18-44z" fill="url(#skin)"/>
    <path d="M54 78c25-21 73-22 96 2l-12 82H65z" fill="url(#skin)"/>

    <path d="M58 91c14 3 25 12 31 27-12 8-29 3-43-14z" fill="#20283a" opacity=".85"/>
    <circle cx="67" cy="107" r="10" fill="#1b2130"/>
    <path d="M57 100l24 18M80 99l-20 22" stroke="#d7a37b" stroke-width="4"/>
    <path d="M109 91c19 4 31 18 33 39-16-2-31-12-43-29z" fill="#262b37" opacity=".75"/>
    <path d="M113 101l19 19M135 101l-20 22" stroke="#b92f28" stroke-width="4" opacity=".9"/>

    <rect x="70" y="153" width="28" height="46" fill="#111827"/>
    <rect x="108" y="153" width="28" height="46" fill="#111827"/>
    <rect x="51" y="197" width="48" height="14" fill="#070a12"/>
    <rect x="108" y="197" width="53" height="14" fill="#070a12"/>

    <circle cx="91" cy="47" r="35" fill="url(#skin)"/>
    <path d="M55 46c2-30 72-39 84-5-15-5-30-5-45 2-12-8-27-6-39 3z" fill="#111827"/>
    <path d="M57 48c13-16 26-18 39-8 12-10 27-11 41 2-1-25-18-36-43-36-28 0-44 15-37 42z" fill="#06080d"/>
    <rect x="61" y="59" width="24" height="12" rx="2" fill="none" stroke="#a9b4c4" stroke-width="4"/>
    <rect x="96" y="59" width="24" height="12" rx="2" fill="none" stroke="#a9b4c4" stroke-width="4"/>
    <rect x="85" y="64" width="11" height="3" fill="#a9b4c4"/>
    <rect x="70" y="63" width="5" height="4" fill="#111827"/>
    <rect x="106" y="63" width="5" height="4" fill="#111827"/>
    <rect x="84" y="79" width="22" height="4" fill="#7f1d1d"/>

    <path d="M42 138l74-4c24-1 35 17 24 36l-18-11c5-8 1-13-9-13l-76 9z" fill="#d96945"/>
    <path d="M114 137l25 13 19 37-27 7-15-32-23-12z" fill="#f09b61"/>
    <path d="M36 148h39v10H36z" fill="#2f1b16" opacity=".24"/>
    <text x="56" y="187" font-family="monospace" font-size="15" font-weight="900" fill="#fef3c7">ISSY</text>
  </g>
</svg>
