<svg xmlns="http://www.w3.org/2000/svg" viewBox="0 0 180 220" shape-rendering="crispEdges">
  <defs>
    <linearGradient id="skin" x1="0" x2="0" y1="0" y2="1">
      <stop offset="0" stop-color="#f2c39f"/>
      <stop offset=".55" stop-color="#d48a69"/>
      <stop offset="1" stop-color="#934d38"/>
    </linearGradient>
    <linearGradient id="ink" x1="0" x2="1" y1="0" y2="1">
      <stop offset="0" stop-color="#111827"/>
      <stop offset=".58" stop-color="#334155"/>
      <stop offset=".6" stop-color="#b72b25"/>
      <stop offset="1" stop-color="#6f1d1b"/>
    </linearGradient>
    <filter id="shadow" x="-20%" y="-20%" width="140%" height="140%">
      <feDropShadow dx="0" dy="5" stdDeviation="3" flood-color="#000" flood-opacity=".38"/>
    </filter>
  </defs>
  <ellipse cx="92" cy="207" rx="60" ry="10" fill="#000" opacity=".25"/>
  <g filter="url(#shadow)">
    <path d="M50 83c-18 15-26 38-22 66l24-4c-1-18 4-33 16-45z" fill="url(#skin)"/>
    <path d="M128 83c21 16 29 40 24 66l-24-5c2-18-4-33-18-44z" fill="url(#skin)"/>
    <path d="M54 78c25-22 74-22 96 2l-12 82H65z" fill="url(#skin)"/>
    <rect x="66" y="85" width="46" height="7" fill="#f5c8aa" opacity=".72"/>
    <rect x="70" y="153" width="28" height="46" fill="#111827"/>
    <rect x="108" y="153" width="28" height="46" fill="#111827"/>
    <rect x="51" y="197" width="48" height="14" fill="#070a12"/>
    <rect x="108" y="197" width="53" height="14" fill="#070a12"/>

    <path d="M58 91c15 2 26 12 31 27-12 9-30 4-44-14z" fill="url(#ink)" opacity=".9"/>
    <circle cx="67" cy="107" r="10" fill="#151a26"/>
    <path d="M57 100l24 18M80 99l-20 22" stroke="#d7a37b" stroke-width="4"/>
    <path d="M108 92c21 4 32 18 34 39-17-2-32-12-44-30z" fill="url(#ink)" opacity=".82"/>
    <path d="M113 101l20 20M136 102l-21 22" stroke="#c92d27" stroke-width="4" opacity=".92"/>
    <rect x="76" y="124" width="31" height="4" fill="#8b3f2d" opacity=".42"/>

    <circle cx="91" cy="47" r="35" fill="url(#skin)"/>
    <path d="M55 46c2-31 72-39 84-5-15-5-30-5-45 2-12-8-27-6-39 3z" fill="#111827"/>
    <path d="M57 48c13-16 26-18 39-8 12-10 27-11 41 2-1-25-18-36-43-36-28 0-44 15-37 42z" fill="#05070c"/>
    <rect x="61" y="59" width="24" height="12" rx="2" fill="none" stroke="#b8c2d2" stroke-width="4"/>
    <rect x="96" y="59" width="24" height="12" rx="2" fill="none" stroke="#b8c2d2" stroke-width="4"/>
    <rect x="85" y="64" width="11" height="3" fill="#b8c2d2"/>
    <rect x="70" y="63" width="5" height="4" fill="#111827"/>
    <rect x="106" y="63" width="5" height="4" fill="#111827"/>
    <rect x="83" y="79" width="23" height="4" fill="#7f1d1d"/>
    <rect x="72" y="73" width="10" height="3" fill="#c87d66" opacity=".65"/>

    <path d="M42 138l74-4c24-1 35 17 24 36l-18-11c5-8 1-13-9-13l-76 9z" fill="#d96945"/>
    <path d="M114 137l25 13 19 37-27 7-15-32-23-12z" fill="#f09b61"/>
    <rect x="35" y="147" width="43" height="10" fill="#2f1b16" opacity=".26"/>
    <rect x="130" y="154" width="22" height="8" fill="#7c2d12" opacity=".42"/>
    <rect x="65" y="57" width="16" height="2" fill="#fff7ed" opacity=".58"/>
    <rect x="101" y="57" width="16" height="2" fill="#fff7ed" opacity=".45"/>
    <rect x="60" y="93" width="15" height="4" fill="#f6c8a7" opacity=".42"/>
    <rect x="116" y="94" width="18" height="4" fill="#e25349" opacity=".5"/>
    <rect x="78" y="139" width="36" height="3" fill="#51251c" opacity=".28"/>
    <rect x="119" y="171" width="19" height="5" fill="#fff1d6" opacity=".38"/>
    <text x="56" y="187" font-family="monospace" font-size="15" font-weight="900" fill="#fef3c7">ISSY</text>
  </g>
</svg>
