<svg xmlns="http://www.w3.org/2000/svg" viewBox="0 0 210 230">
  <defs>
    <linearGradient id="skin" x1="0" x2="0" y1="0" y2="1">
      <stop offset="0" stop-color="#f0bd97"/>
      <stop offset="1" stop-color="#b56b4b"/>
    </linearGradient>
    <filter id="shadow" x="-20%" y="-20%" width="140%" height="140%">
      <feDropShadow dx="0" dy="5" stdDeviation="4" flood-color="#000" flood-opacity=".38"/>
    </filter>
  </defs>
  <ellipse cx="107" cy="212" rx="70" ry="11" fill="#000" opacity=".25"/>
  <g filter="url(#shadow)">
    <path d="M60 92h94l-9 96H70z" fill="#111827"/>
    <path d="M76 106h62l8 38H68z" fill="#191f2a"/>
    <text x="76" y="136" font-family="monospace" font-size="25" font-weight="900" fill="#50e35d">KICK</text>
    <path d="M70 185h28l-6 32H61zM116 185h28l10 32h-34z" fill="#0b1020"/>
    <path d="M54 209h45v13H45c-10 0-13-10-4-14zM119 210h48v13h-51c-10 0-15-9-6-14z" fill="#050816"/>
    <circle cx="107" cy="55" r="43" fill="#0b0f17"/>
    <ellipse cx="107" cy="61" rx="27" ry="33" fill="url(#skin)"/>
    <path d="M73 46c15-28 54-33 72-2-11-10-27-13-39-8-13-6-23-3-33 10z" fill="#06070a"/>
    <path d="M76 48c9 14 9 31 0 47l-17-17c4-18 7-25 17-30zM138 48c-9 15-8 32 0 47l17-17c-4-18-7-25-17-30z" fill="#06070a"/>
    <path d="M95 50h24l-7 27h-13z" fill="#0b0f17"/>
    <rect x="72" y="43" width="35" height="31" rx="7" fill="none" stroke="#d8be76" stroke-width="7"/>
    <rect x="109" y="43" width="35" height="31" rx="7" fill="none" stroke="#d8be76" stroke-width="7"/>
    <path d="M107 56h2" stroke="#d8be76" stroke-width="6"/>
    <circle cx="89" cy="58" r="4" fill="#111827"/>
    <circle cx="126" cy="58" r="4" fill="#111827"/>
    <path d="M93 82c10 8 25 8 37 0" stroke="#7f1d1d" stroke-width="5" stroke-linecap="round"/>
    <path d="M67 109c-33 6-56 24-65 50l23 11c9-19 25-31 51-36z" fill="#111827"/>
    <path d="M143 109c35 6 58 24 65 50l-23 11c-9-19-25-31-51-36z" fill="#111827"/>
    <circle cx="13" cy="165" r="16" fill="url(#skin)"/>
    <circle cx="197" cy="165" r="16" fill="url(#skin)"/>
    <path d="M61 108c-10 9-18 22-22 38M152 108c10 9 18 22 22 38" stroke="#2f3a4d" stroke-width="4" fill="none"/>
  </g>
</svg>
