<svg xmlns="http://www.w3.org/2000/svg" viewBox="0 0 96 140" shape-rendering="crispEdges">
  <defs>
    <linearGradient id="skin" x1="0" x2="0" y1="0" y2="1">
      <stop offset="0" stop-color="#f7c8a9"/>
      <stop offset=".48" stop-color="#dc926e"/>
      <stop offset="1" stop-color="#9b5a43"/>
    </linearGradient>
    <linearGradient id="hairPink" x1="0" x2="1" y1="0" y2="1">
      <stop offset="0" stop-color="#fff0d7"/>
      <stop offset=".34" stop-color="#f5b38f"/>
      <stop offset=".68" stop-color="#ee6f93"/>
      <stop offset="1" stop-color="#9e315b"/>
    </linearGradient>
    <linearGradient id="shirt" x1="0" x2="1" y1="0" y2="1">
      <stop offset="0" stop-color="#25394b"/>
      <stop offset=".55" stop-color="#111827"/>
      <stop offset="1" stop-color="#05070d"/>
    </linearGradient>
    <filter id="shadow" x="-20%" y="-20%" width="140%" height="140%">
      <feDropShadow dx="0" dy="3" stdDeviation="2" flood-color="#000" flood-opacity=".34"/>
    </filter>
  </defs>

  <ellipse cx="48" cy="130" rx="34" ry="7" fill="#000" opacity=".24"/>
  <g filter="url(#shadow)">
    <path d="M21 76h54l9 47H12z" fill="url(#shirt)"/>
    <path d="M36 78h25l-6 17H43z" fill="#f09aa4"/>
    <path d="M31 78h10l8 13 9-13h10L55 103H43z" fill="#f43f5e"/>
    <rect x="40" y="82" width="18" height="6" fill="#111827"/>
    <rect x="28" y="86" width="15" height="8" fill="#e93d78"/>
    <rect x="55" y="88" width="17" height="7" fill="#bc255a"/>
    <rect x="18" y="98" width="23" height="9" fill="#26364b"/>
    <rect x="47" y="101" width="21" height="8" fill="#e23a76"/>
    <rect x="24" y="112" width="18" height="8" fill="#c82b5e"/>
    <rect x="54" y="115" width="19" height="7" fill="#2b3c50"/>
    <rect x="20" y="120" width="20" height="15" fill="#0a1020"/>
    <rect x="56" y="120" width="20" height="15" fill="#0a1020"/>
    <rect x="16" y="133" width="29" height="5" fill="#040713"/>
    <rect x="52" y="133" width="31" height="5" fill="#040713"/>

    <path d="M21 83C9 89 2 101 4 119l17 2c0-11 5-20 13-25z" fill="#1b2838"/>
    <path d="M75 84c13 8 19 20 15 35l-16-3c2-9-2-17-11-23z" fill="#1b2838"/>
    <rect x="1" y="114" width="20" height="8" rx="2" fill="#f5c5a2"/>
    <rect x="74" y="111" width="16" height="9" rx="2" fill="#f1bd9a"/>

    <circle cx="49" cy="48" r="31" fill="url(#skin)"/>
    <rect x="31" y="69" width="35" height="10" fill="#c07055"/>
    <rect x="35" y="73" width="28" height="7" fill="#8e4e3c"/>

    <path d="M10 36c5-18 15-25 29-23C45 4 58 2 67 9c12 0 20 9 21 23 8 8 7 18-1 28-5-12-15-19-28-19-17 0-28 7-43 1z" fill="url(#hairPink)"/>
    <rect x="16" y="20" width="16" height="14" fill="#f7c6a3"/>
    <rect x="28" y="11" width="19" height="16" fill="#ffe0bd"/>
    <rect x="43" y="6" width="16" height="17" fill="#ffc1a6"/>
    <rect x="56" y="9" width="16" height="16" fill="#ef8c98"/>
    <rect x="69" y="18" width="14" height="17" fill="#d65d87"/>
    <rect x="12" y="34" width="13" height="16" fill="#d84c76"/>
    <rect x="25" y="28" width="14" height="12" fill="#ffd8bd"/>
    <rect x="39" y="24" width="17" height="11" fill="#f5a082"/>
    <rect x="56" y="27" width="16" height="11" fill="#ee7190"/>
    <rect x="72" y="35" width="13" height="14" fill="#9e315b"/>
    <rect x="18" y="45" width="8" height="13" fill="#bf4064"/>
    <rect x="72" y="47" width="8" height="13" fill="#b94f5f"/>

    <rect x="26" y="48" width="20" height="10" fill="none" stroke="#cf1f32" stroke-width="4"/>
    <rect x="53" y="48" width="19" height="10" fill="none" stroke="#cf1f32" stroke-width="4"/>
    <rect x="46" y="52" width="8" height="3" fill="#cf1f32"/>
    <rect x="32" y="51" width="6" height="4" fill="#1f2937"/>
    <rect x="59" y="51" width="6" height="4" fill="#1f2937"/>
    <rect x="32" y="43" width="13" height="3" fill="#1a1010"/>
    <rect x="57" y="43" width="13" height="3" fill="#1a1010"/>
    <rect x="46" y="57" width="7" height="5" fill="#a85b4f"/>
    <rect x="39" y="66" width="19" height="4" fill="#6f1d1b"/>
    <rect x="25" y="59" width="12" height="3" fill="#efb29e" opacity=".72"/>
    <rect x="61" y="59" width="10" height="3" fill="#b86256" opacity=".56"/>

    <rect x="25" y="79" width="46" height="4" fill="#ffffff" opacity=".13"/>
    <rect x="20" y="84" width="15" height="6" fill="#e83a76"/>
    <rect x="62" y="85" width="14" height="6" fill="#eb476f"/>
    <text x="24" y="116" font-family="monospace" font-size="13" font-weight="900" fill="#fff7d6">MUNE</text>
  </g>
</svg>
