<svg xmlns="http://www.w3.org/2000/svg" viewBox="0 0 90 120" shape-rendering="crispEdges">
  <defs>
    <linearGradient id="skin" x1="0" x2="0" y1="0" y2="1">
      <stop offset="0" stop-color="#f0bca3"/>
      <stop offset=".56" stop-color="#d99082"/>
      <stop offset="1" stop-color="#a75a55"/>
    </linearGradient>
    <linearGradient id="shirt" x1="0" x2="1" y1="0" y2="1">
      <stop offset="0" stop-color="#262833"/>
      <stop offset="1" stop-color="#07090f"/>
    </linearGradient>
    <filter id="shadow" x="-20%" y="-20%" width="140%" height="140%">
      <feDropShadow dx="0" dy="3" stdDeviation="2" flood-color="#000" flood-opacity=".34"/>
    </filter>
  </defs>
  <ellipse cx="45" cy="112" rx="30" ry="6" fill="#000" opacity=".22"/>
  <g filter="url(#shadow)">
    <path d="M25 72h40l8 35H17z" fill="url(#shirt)"/>
    <path d="M24 76h8v24h-8zM58 75h8v25h-8z" fill="#1a1c24"/>
    <path d="M26 101h15v15H25zM49 101h15v15H49z" fill="#090b12"/>

    <path d="M22 31c2-21 44-27 55-7 8 15 1 34-10 45-9 9-29 10-40 1-10-8-14-25-5-39z" fill="url(#skin)"/>
    <path d="M20 32c5-24 43-33 56-12 6 10 5 22 0 31-2-15-11-22-27-22-13 0-23 6-29 3z" fill="#10131b"/>
    <path d="M20 34c14-12 28-18 51-8l3-8C60 4 25 8 18 29z" fill="#05070c"/>
    <path d="M24 29h10v9H24zM36 23h12v9H36zM50 22h13v9H50zM63 28h11v10H63z" fill="#151923"/>

    <rect x="27" y="45" width="13" height="7" fill="#f5d0bf"/>
    <rect x="51" y="45" width="13" height="7" fill="#f5d0bf"/>
    <rect x="31" y="47" width="5" height="3" fill="#111827"/>
    <rect x="54" y="47" width="5" height="3" fill="#111827"/>
    <rect x="42" y="50" width="8" height="5" fill="#b56b61"/>

    <path d="M30 60h24c11 0 16 9 12 20-7 12-26 12-38 2-3-9-1-17 2-22z" fill="#65202b"/>
    <path d="M44 68c8 2 16 7 18 14-8 7-21 5-27-2 1-8 4-11 9-12z" fill="#db5c83"/>
    <rect x="31" y="60" width="22" height="4" fill="#f8d3c4"/>
    <rect x="36" y="84" width="19" height="4" fill="#f4b6c8"/>

    <rect x="16" y="71" width="8" height="15" fill="#d99082"/>
    <rect x="66" y="70" width="8" height="15" fill="#d99082"/>
    <rect x="18" y="90" width="54" height="5" fill="#10131b" opacity=".35"/>
    <text x="22" y="108" font-family="monospace" font-size="16" font-weight="900" fill="#e0f2fe">PON</text>
  </g>
</svg>
