<svg xmlns="http://www.w3.org/2000/svg" viewBox="0 0 90 120" shape-rendering="crispEdges">
  <defs>
    <linearGradient id="skin" x1="0" x2="0" y1="0" y2="1">
      <stop offset="0" stop-color="#f4c8b3"/>
      <stop offset=".48" stop-color="#df9a8e"/>
      <stop offset="1" stop-color="#9f5854"/>
    </linearGradient>
    <linearGradient id="shirt" x1="0" x2="1" y1="0" y2="1">
      <stop offset="0" stop-color="#30323f"/>
      <stop offset=".55" stop-color="#171a24"/>
      <stop offset="1" stop-color="#05070d"/>
    </linearGradient>
    <filter id="shadow" x="-20%" y="-20%" width="140%" height="140%">
      <feDropShadow dx="0" dy="3" stdDeviation="2" flood-color="#000" flood-opacity=".38"/>
    </filter>
  </defs>
  <ellipse cx="45" cy="112" rx="31" ry="6" fill="#000" opacity=".24"/>
  <g filter="url(#shadow)">
    <path d="M24 73h42l8 35H16z" fill="url(#shirt)"/>
    <path d="M26 76h38v7H26z" fill="#262938"/>
    <path d="M17 82h12v20H17zM61 81h12v21H61z" fill="#10131b"/>
    <rect x="27" y="101" width="16" height="15" fill="#080a11"/>
    <rect x="48" y="101" width="16" height="15" fill="#080a11"/>

    <path d="M20 32c3-24 45-30 57-9 8 14 3 34-9 47-11 12-31 13-43 2-10-9-14-25-5-40z" fill="url(#skin)"/>
    <path d="M19 33c4-23 41-34 57-13 5 7 6 18 2 30-5-14-15-21-31-21-13 0-24 6-28 4z" fill="#10131b"/>
    <path d="M19 31c12-17 36-24 55-8l3-8C60 0 27 6 18 28z" fill="#05070c"/>
    <rect x="23" y="25" width="10" height="9" fill="#171b25"/>
    <rect x="35" y="18" width="12" height="10" fill="#111620"/>
    <rect x="49" y="19" width="13" height="10" fill="#111620"/>
    <rect x="62" y="26" width="12" height="10" fill="#171b25"/>
    <rect x="22" y="39" width="8" height="9" fill="#d17e76"/>
    <rect x="67" y="38" width="7" height="13" fill="#c06f69"/>

    <rect x="27" y="45" width="14" height="8" fill="#f6d2c1"/>
    <rect x="51" y="45" width="14" height="8" fill="#f6d2c1"/>
    <rect x="31" y="47" width="5" height="3" fill="#111827"/>
    <rect x="55" y="47" width="5" height="3" fill="#111827"/>
    <rect x="43" y="50" width="7" height="5" fill="#b86761"/>
    <rect x="27" y="56" width="17" height="3" fill="#c87574" opacity=".8"/>

    <path d="M29 60h25c12 0 17 9 13 20-6 13-26 13-39 2-3-9-2-17 1-22z" fill="#641f2b"/>
    <rect x="31" y="60" width="22" height="4" fill="#ffe1d4"/>
    <path d="M43 68c9 1 16 7 19 14-8 8-21 6-28-2 1-8 4-11 9-12z" fill="#de6288"/>
    <rect x="39" y="78" width="21" height="5" fill="#f08aad"/>
    <rect x="37" y="84" width="18" height="4" fill="#f3b7ca"/>

    <rect x="18" y="70" width="6" height="17" fill="#d98f83"/>
    <rect x="68" y="69" width="6" height="17" fill="#d98f83"/>
    <rect x="19" y="89" width="52" height="5" fill="#0b1020" opacity=".38"/>
    <text x="21" y="108" font-family="monospace" font-size="16" font-weight="900" fill="#e0f2fe">PON</text>
  </g>
</svg>
