<svg xmlns="http://www.w3.org/2000/svg" viewBox="0 0 90 120">
  <defs>
    <radialGradient id="body" cx=".35" cy=".25" r=".75">
      <stop offset="0" stop-color="#ffffff"/>
      <stop offset=".55" stop-color="#e0f2fe"/>
      <stop offset="1" stop-color="#7dd3fc"/>
    </radialGradient>
    <filter id="shadow" x="-20%" y="-20%" width="140%" height="140%">
      <feDropShadow dx="0" dy="3" stdDeviation="3" flood-color="#0369a1" flood-opacity=".35"/>
    </filter>
  </defs>
  <ellipse cx="45" cy="110" rx="30" ry="7" fill="#000" opacity=".18"/>
  <g filter="url(#shadow)">
    <path d="M22 30c5-18 42-22 50 2 8 24-5 58-27 62-23-3-34-38-23-64z" fill="url(#body)" stroke="#0ea5e9" stroke-width="4"/>
    <path d="M25 57c12 12 31 12 45 0 0 25-11 37-25 39-14-2-22-14-20-39z" fill="#bae6fd" opacity=".75"/>
    <rect x="25" y="14" width="40" height="13" rx="6" fill="#0284c7"/>
    <rect x="31" y="3" width="28" height="17" rx="7" fill="#38bdf8" stroke="#0369a1" stroke-width="3"/>
    <circle cx="35" cy="43" r="7" fill="#0f172a"/>
    <circle cx="56" cy="43" r="7" fill="#0f172a"/>
    <circle cx="37" cy="40" r="2" fill="#fff"/>
    <circle cx="58" cy="40" r="2" fill="#fff"/>
    <path d="M32 61c8 8 20 8 29 0" fill="none" stroke="#0369a1" stroke-width="5" stroke-linecap="round"/>
    <path d="M14 62l-10 9 11 9M76 62l10 9-11 9" fill="none" stroke="#0ea5e9" stroke-width="6" stroke-linecap="round" stroke-linejoin="round"/>
    <text x="20" y="108" font-family="monospace" font-size="18" font-weight="900" fill="#075985">PON</text>
  </g>
</svg>
