<svg xmlns="http://www.w3.org/2000/svg" viewBox="0 0 210 190" shape-rendering="crispEdges">
  <defs>
    <linearGradient id="skin" x1="0" x2="0" y1="0" y2="1">
      <stop offset="0" stop-color="#efc19f"/>
      <stop offset=".58" stop-color="#cd886a"/>
      <stop offset="1" stop-color="#9c5b43"/>
    </linearGradient>
    <linearGradient id="shirt" x1="0" x2="1" y1="0" y2="1">
      <stop offset="0" stop-color="#15171e"/>
      <stop offset=".49" stop-color="#191b22"/>
      <stop offset=".50" stop-color="#cb2f3b"/>
      <stop offset="1" stop-color="#74151a"/>
    </linearGradient>
    <filter id="shadow" x="-20%" y="-20%" width="140%" height="140%">
      <feDropShadow dx="0" dy="4" stdDeviation="3" flood-color="#000" flood-opacity=".35"/>
    </filter>
  </defs>
  <ellipse cx="104" cy="173" rx="76" ry="10" fill="#000" opacity=".24"/>
  <g filter="url(#shadow)">
    <g stroke="#1f2937" stroke-width="8" fill="none" stroke-linecap="round" stroke-linejoin="round">
      <path d="M44 129h91l18-46"/>
      <path d="M65 130L49 83"/>
      <circle cx="52" cy="146" r="26"/>
      <circle cx="145" cy="146" r="26"/>
    </g>
    <g stroke="#94a3b8" stroke-width="4" fill="none">
      <path d="M52 120v52M26 146h52M145 120v52M119 146h52"/>
      <circle cx="52" cy="146" r="6" fill="#cbd5e1"/>
      <circle cx="145" cy="146" r="6" fill="#cbd5e1"/>
    </g>

    <path d="M54 75c20-16 75-16 97 2l-11 61H62z" fill="url(#shirt)"/>
    <path d="M80 76l19 63M122 76l-18 63" stroke="#ef4444" stroke-width="8" opacity=".86"/>
    <path d="M57 92c-20 9-35 23-45 43l18 9c7-15 20-27 37-33z" fill="#191b22"/>
    <path d="M148 92c17 9 29 23 36 42l-19 7c-5-14-14-24-28-32z" fill="#191b22"/>

    <circle cx="103" cy="47" r="31" fill="url(#skin)"/>
    <path d="M73 42c6-24 53-31 66-3-19-7-43-6-66 3z" fill="#111827"/>
    <path d="M72 50c16-8 48-10 65-1V37c-14-17-53-19-65 3z" fill="#05070c"/>
    <rect x="82" y="59" width="46" height="8" rx="3" fill="#111827"/>
    <rect x="85" y="57" width="18" height="3" fill="#cbd5e1"/>
    <rect x="109" y="57" width="18" height="3" fill="#cbd5e1"/>
    <rect x="91" y="54" width="5" height="4" fill="#111827"/>
    <rect x="115" y="54" width="5" height="4" fill="#111827"/>
    <rect x="94" y="70" width="26" height="4" fill="#7f1d1d"/>

    <g opacity=".85">
      <path d="M18 130l56-9" stroke="#6b7280" stroke-width="9" stroke-linecap="round"/>
      <path d="M10 126l18 18" stroke="#cbd5e1" stroke-width="5"/>
      <circle cx="10" cy="126" r="7" fill="#e5e7eb" stroke="#4b5563" stroke-width="3"/>
    </g>
    <g>
      <circle cx="169" cy="78" r="10" fill="#f8fafc" stroke="#475569" stroke-width="3"/>
      <rect x="170" y="92" width="10" height="34" rx="3" fill="#d1d5db" stroke="#475569" stroke-width="3"/>
      <path d="M158 117l22 8 20-11" stroke="#ef4444" stroke-width="5" fill="none"/>
    </g>
    <text x="72" y="158" font-family="monospace" font-size="16" font-weight="900" fill="#fef2f2">YOSHI</text>
  </g>
</svg>
