<svg xmlns="http://www.w3.org/2000/svg" viewBox="0 0 210 190">
  <defs>
    <linearGradient id="skin" x1="0" x2="0" y1="0" y2="1">
      <stop offset="0" stop-color="#f2c19d"/>
      <stop offset="1" stop-color="#bd7656"/>
    </linearGradient>
    <linearGradient id="shirt" x1="0" x2="1" y1="0" y2="1">
      <stop offset="0" stop-color="#1c1d22"/>
      <stop offset=".55" stop-color="#202126"/>
      <stop offset=".56" stop-color="#cf2e38"/>
      <stop offset="1" stop-color="#7f1d1d"/>
    </linearGradient>
    <filter id="shadow" x="-20%" y="-20%" width="140%" height="140%">
      <feDropShadow dx="0" dy="4" stdDeviation="4" flood-color="#000" flood-opacity=".35"/>
    </filter>
  </defs>
  <ellipse cx="104" cy="172" rx="76" ry="10" fill="#000" opacity=".23"/>
  <g filter="url(#shadow)">
    <g stroke="#1f2937" stroke-width="8" fill="none" stroke-linecap="round" stroke-linejoin="round">
      <path d="M45 128h90l19-45"/>
      <path d="M64 129l-15-47"/>
      <circle cx="52" cy="145" r="26"/>
      <circle cx="145" cy="145" r="26"/>
    </g>
    <g stroke="#94a3b8" stroke-width="4" fill="none">
      <path d="M52 119v52M26 145h52M145 119v52M119 145h52"/>
      <circle cx="52" cy="145" r="6" fill="#cbd5e1"/>
      <circle cx="145" cy="145" r="6" fill="#cbd5e1"/>
    </g>
    <path d="M55 75c18-15 74-16 95 2l-10 60H63z" fill="url(#shirt)"/>
    <path d="M78 77l21 61M119 77l-14 61" stroke="#ef4444" stroke-width="7" opacity=".75"/>
    <path d="M54 92c-21 9-35 23-44 44l18 8c7-16 19-27 36-33z" fill="#202126"/>
    <path d="M150 91c17 9 29 23 35 42l-19 6c-5-14-14-24-27-31z" fill="#202126"/>
    <circle cx="103" cy="47" r="31" fill="url(#skin)"/>
    <path d="M73 41c6-24 52-30 65-2-19-6-42-5-65 2z" fill="#111827"/>
    <path d="M72 50c16-8 47-9 64-1v-12c-14-17-52-18-64 3z" fill="#0b1020"/>
    <rect x="82" y="58" width="45" height="8" rx="4" fill="#111827"/>
    <circle cx="92" cy="54" r="3" fill="#111827"/>
    <circle cx="115" cy="54" r="3" fill="#111827"/>
    <path d="M92 69c9 5 21 5 31-1" stroke="#7f1d1d" stroke-width="4" stroke-linecap="round"/>
    <g transform="translate(6 0)">
      <path d="M14 130l58-9" stroke="#6b7280" stroke-width="9" stroke-linecap="round"/>
      <path d="M9 125l17 18" stroke="#cbd5e1" stroke-width="5"/>
      <circle cx="9" cy="125" r="7" fill="#e5e7eb" stroke="#4b5563" stroke-width="3"/>
    </g>
    <g>
      <circle cx="169" cy="78" r="10" fill="#f8fafc" stroke="#475569" stroke-width="3"/>
      <rect x="170" y="92" width="10" height="34" rx="5" fill="#d1d5db" stroke="#475569" stroke-width="3"/>
      <path d="M158 117l22 8 20-11" stroke="#ef4444" stroke-width="5" fill="none"/>
    </g>
  </g>
</svg>
